<svg xmlns="http://www.w3.org/2000/svg" width="22.5" height="22.5" viewBox="0 0 22.5 22.5">
  <g id="notification" transform="translate(0 -0.201)">
    <path id="Path" d="M5.947.319a.179.179,0,0,0,.036-.2A.21.21,0,0,0,5.8,0H.2A.21.21,0,0,0,.017.115a.179.179,0,0,0,.036.2A4.191,4.191,0,0,0,3,1.5,4.191,4.191,0,0,0,5.947.319Z" transform="translate(9 21.201)" fill="#c4b9f4"/>
    <path id="Path-2" data-name="Path" d="M21.889,17.258a9.038,9.038,0,0,1-2.6-6.356V8.339A8.229,8.229,0,0,0,11.523,0a7.988,7.988,0,0,0-5.86,2.279A8.166,8.166,0,0,0,3.214,8.128V10.9a9.038,9.038,0,0,1-2.6,6.356l-.325.329A.988.988,0,0,0,0,18.282v.232a.988.988,0,0,0,.283.7.967.967,0,0,0,.689.289H21.528a.978.978,0,0,0,.972-.983v-.236a.988.988,0,0,0-.285-.695Z" transform="translate(0 0.201)" fill="#c4b9f4"/>
  </g>
</svg>
