<svg xmlns="http://www.w3.org/2000/svg" width="21.12" height="23.04" viewBox="0 0 21.12 23.04">
  <g id="settings" transform="translate(0 -0.812)">
    <path id="Shape" d="M11.334,23.04H9.778a1.209,1.209,0,0,1-1.148-.823l-.5-1.555a3.705,3.705,0,0,0-1.671-2.021H6.43a3.723,3.723,0,0,0-2.608-.453l-1.593.325a1.21,1.21,0,0,1-1.292-.547L.161,16.626a1.2,1.2,0,0,1,.145-1.4l1.052-1.234A3.736,3.736,0,0,0,2.3,11.52,3.727,3.727,0,0,0,1.358,9L.3,7.817a1.207,1.207,0,0,1-.14-1.387L.937,5.106a1.21,1.21,0,0,1,1.292-.58l1.614.3a3.725,3.725,0,0,0,2.6-.437h.024a3.7,3.7,0,0,0,1.651-2.02L8.635.823A1.209,1.209,0,0,1,9.782,0h1.556a1.209,1.209,0,0,1,1.147.823l.5,1.555A3.705,3.705,0,0,0,14.66,4.4h.025a3.723,3.723,0,0,0,2.608.453l1.593-.325a1.209,1.209,0,0,1,1.3.547l.776,1.341a1.2,1.2,0,0,1-.144,1.4L19.729,9.051a3.778,3.778,0,0,0,0,4.937l1.082,1.234a1.2,1.2,0,0,1,.12,1.4l-.776,1.341a1.21,1.21,0,0,1-1.292.58l-1.593-.325a3.732,3.732,0,0,0-2.6.44h-.024A3.709,3.709,0,0,0,13,20.678l-.516,1.539A1.208,1.208,0,0,1,11.334,23.04ZM10.558,8.229a3.291,3.291,0,1,0,2.335,5.619,3.265,3.265,0,0,0,.968-2.327A3.3,3.3,0,0,0,10.558,8.229Z" transform="translate(0 0.812)" fill="#c4b9f4"/>
  </g>
</svg>
