<svg xmlns="http://www.w3.org/2000/svg" width="35.419" height="33.097" viewBox="0 0 35.419 33.097">
  <g id="Logo" transform="translate(-0.359 -0.389)">
    <g id="Group" transform="translate(9.649 7.937)">
      <path id="Fill_1" data-name="Fill 1" d="M17.1,3.5h.246V1.873A1.915,1.915,0,0,0,15.389,0H1.954A1.915,1.915,0,0,0,0,1.873V3.5H17.1Z" transform="translate(0 0)" fill="#fff"/>
      <path id="Fill_3" data-name="Fill 3" d="M15.389,3.5a1.915,1.915,0,0,0,1.954-1.873V0H0V1.624A1.915,1.915,0,0,0,1.954,3.5H15.389Z" transform="translate(0 13.755)" fill="#fff"/>
      <path id="Fill_5" data-name="Fill 5" d="M.245,0H0V3.476H17.34V0H.245Z" transform="translate(0.001 6.888)" fill="#fff"/>
    </g>
    <path id="Fill_7" data-name="Fill 7" d="M22.149,33.1H13.271c-.555,0-1.1-.021-1.609-.063a12.764,12.764,0,0,1-5.953-1.861,10.762,10.762,0,0,1-3.847-4.477A23.582,23.582,0,0,1,0,16.568s0-.007,0-.01,0-.007,0-.01,0-.007,0-.01,0-.007,0-.01A23.587,23.587,0,0,1,1.862,6.4,10.762,10.762,0,0,1,5.709,1.924,12.764,12.764,0,0,1,11.661.063C12.186.021,12.727,0,13.271,0h8.879c.543,0,1.085.021,1.609.063a14.16,14.16,0,0,1,4.2.952,10.541,10.541,0,0,1,5.6,5.387,16.181,16.181,0,0,1,1.035,2.843,28.628,28.628,0,0,1,.827,7.284s0,.007,0,.01,0,.006,0,.01,0,.006,0,.009,0,.007,0,.01a28.628,28.628,0,0,1-.827,7.284,16.181,16.181,0,0,1-1.035,2.843,10.541,10.541,0,0,1-5.6,5.386,14.135,14.135,0,0,1-4.2.952C23.245,33.075,22.7,33.1,22.149,33.1ZM13.939,3.5c-4.368,0-7.01,1.2-8.314,3.763C4.437,9.6,4.437,12.8,4.437,16.5v.091c0,3.7,0,6.9,1.188,9.236,1.3,2.567,3.946,3.763,8.314,3.763H21.48c4.368,0,7.01-1.2,8.314-3.763,1.188-2.338,1.188-5.534,1.188-9.236V16.5c0-3.7,0-6.9-1.188-9.236C28.49,4.7,25.848,3.5,21.48,3.5Z" transform="translate(0.359 0.389)" fill="#fff"/>
  </g>
</svg>
