<svg xmlns="http://www.w3.org/2000/svg" width="19.361" height="22.589" viewBox="0 0 19.361 22.589">
  <g id="Briefs" transform="translate(0 0)">
    <path id="Shape" d="M13.493,19.362H2.642A2.645,2.645,0,0,1,0,16.719V2.36A2.362,2.362,0,0,1,2.36,0H13.493a2.645,2.645,0,0,1,2.642,2.642V16.719A2.645,2.645,0,0,1,13.493,19.362ZM4.268,12.908a1.042,1.042,0,0,0-1.041,1.04v.339a1.042,1.042,0,0,0,1.041,1.04h5.986a1.042,1.042,0,0,0,1.04-1.04v-.339a1.042,1.042,0,0,0-1.04-1.04Zm0-4.437a1.042,1.042,0,0,0-1.041,1.04v.339a1.042,1.042,0,0,0,1.041,1.04h7.6a1.042,1.042,0,0,0,1.041-1.04V9.511a1.042,1.042,0,0,0-1.041-1.04Zm0-4.437a1.042,1.042,0,0,0-1.041,1.04v.339a1.042,1.042,0,0,0,1.041,1.04H7.834a1.042,1.042,0,0,0,1.04-1.04V5.074a1.042,1.042,0,0,0-1.04-1.04Z" transform="translate(0 3.227)" fill="#afa2f2"/>
    <path id="Path" d="M10.891,0H.863A.863.863,0,0,0,0,.863a.75.75,0,0,0,.75.75h9.737a4.034,4.034,0,0,1,4.034,4.034V18.555a.807.807,0,0,0,1.613,0V5.244A5.244,5.244,0,0,0,10.891,0Z" transform="translate(3.227)" fill="#afa2f2"/>
  </g>
</svg>
