<svg xmlns="http://www.w3.org/2000/svg" width="17.748" height="22.336" viewBox="0 0 17.748 22.336">
  <g id="Competitors" transform="translate(0 -0.252)">
    <path id="Path" d="M1.613,0a1.613,1.613,0,0,0,0,3.227H14.521a1.613,1.613,0,1,0,0-3.227Z" transform="translate(1.613 19.361)" fill="#afa2f2"/>
    <path id="Path-2" data-name="Path" d="M17.748,7.815V6.67A6.454,6.454,0,0,0,11.641.216L7.333.006A4.671,4.671,0,0,0,2.42,4.669V5.928A1.888,1.888,0,0,0,4.308,7.815H13.67a.835.835,0,0,1,.851.67.807.807,0,0,1-.807.944H12.75a3.07,3.07,0,0,0-3.07,3.07A1.771,1.771,0,0,1,7.91,14.269H4.885a.835.835,0,0,1-.851-.67.807.807,0,0,1,.807-.944h.536a3.1,3.1,0,0,0,1.936-.641c1.4-1.113.625-2.586-.5-2.586H3.187A3.227,3.227,0,0,0,0,12.636,4.861,4.861,0,0,0,4.861,17.5h7.2A5.691,5.691,0,0,0,17.748,11.8Z" transform="translate(0 0.252)" fill="#afa2f2"/>
  </g>
</svg>
