<svg xmlns="http://www.w3.org/2000/svg" width="23.424" height="22.236" viewBox="0 0 23.424 22.236">
  <g id="home" transform="translate(-0.001 -0.352)">
    <path id="Path" d="M15.113,22.236H19.2a.874.874,0,0,0,.874-.874V13.38A1.184,1.184,0,0,1,21.262,12.2h.933a1.221,1.221,0,0,0,1.117-.678,1.188,1.188,0,0,0-.234-1.343L13.741.84a2.865,2.865,0,0,0-4.053,0L.347,10.176a1.188,1.188,0,0,0-.234,1.343,1.221,1.221,0,0,0,1.117.678h.933A1.184,1.184,0,0,1,3.346,13.38v7.981a.874.874,0,0,0,.874.874H8.311a.891.891,0,0,0,.891-.891V15.6a.891.891,0,0,1,.891-.891h3.242a.891.891,0,0,1,.887.891v5.747a.891.891,0,0,0,.891.891Z" transform="translate(0.001 0.352)" fill="#fff"/>
  </g>
</svg>
