<svg xmlns="http://www.w3.org/2000/svg" width="21.083" height="21.083" viewBox="0 0 21.083 21.083">
  <g id="Keywords" transform="translate(0.001 -0.321)">
    <path id="Shape" d="M8.949,21.082a1.684,1.684,0,0,1-1.207-.5L.5,13.335a1.7,1.7,0,0,1-.321-1.972A25.2,25.2,0,0,1,4.79,5.146a25.042,25.042,0,0,1,6.385-4.7A4.385,4.385,0,0,1,13.1,0l.157,0,5.864.175a1.825,1.825,0,0,1,1.766,1.767l.193,5.87A4.377,4.377,0,0,1,20.615,9.9a25.04,25.04,0,0,1-4.7,6.388A25.171,25.171,0,0,1,9.713,20.9,1.7,1.7,0,0,1,8.949,21.082ZM16.582,2.974a1.514,1.514,0,0,0,0,3.028,1.5,1.5,0,0,0,1.069-.444,1.514,1.514,0,0,0-1.069-2.584Z" transform="translate(0 0.321)" fill="#afa2f2"/>
  </g>
</svg>
