<svg xmlns="http://www.w3.org/2000/svg" width="20" height="21" viewBox="0 0 20 21">
  <g id="updates" transform="translate(0 -0.477)">
    <path id="Fill_1443" data-name="Fill 1443" d="M12.268,11.648,4.8,13.141,6.3,5.677,11.974,0H2.111A2.114,2.114,0,0,0,0,2.111V16.889A2.114,2.114,0,0,0,2.111,19H16.889A2.114,2.114,0,0,0,19,16.889V4.915Z" transform="translate(0 2.477)" fill="#fff"/>
    <path id="Fill_1444" data-name="Fill 1444" d="M.8,0,4,3.2,0,4Z" transform="translate(8 9.477)" fill="#fff"/>
    <path id="Fill_1445" data-name="Fill 1445" d="M10.341,3.84A2.25,2.25,0,0,0,7.16.659L0,7.818,3.182,11Z" transform="translate(9 0.477)" fill="#fff"/>
  </g>
</svg>
